<svg width="951" height="1701" viewBox="0 0 951 1701" fill="none" xmlns="http://www.w3.org/2000/svg">
<path d="M0.5 125.5C0.5 56.4644 56.4644 0.5 125.5 0.5H825.5C894.536 0.5 950.5 56.4644 950.5 125.5V425.5V638V744.25V759.434C950.5 776.756 935.354 788.588 920.5 797.5C905.063 806.762 893.514 817.752 890.5 835.5C889.616 840.704 889.513 848.709 889.501 850.242C889.5 850.416 889.5 850.584 889.501 850.758C889.513 852.291 889.616 860.296 890.5 865.5C893.514 883.248 905.063 894.238 920.5 903.5C935.354 912.412 950.5 924.244 950.5 941.566V956.75V1063V1275.5V1575.5C950.5 1644.54 894.536 1700.5 825.5 1700.5H125.5C56.4644 1700.5 0.5 1644.54 0.5 1575.5V1275.5V1063V956.75V941.566C0.5 924.244 15.6464 912.412 30.5 903.5C45.9368 894.238 56.5679 883.068 60.5 865.5C61.7823 859.771 61.5 856.371 61.5 850.5C61.5 844.629 61.7823 841.229 60.5 835.5C56.5679 817.932 45.9368 806.762 30.5 797.5C15.6464 788.588 0.5 776.756 0.5 759.434V744.25V638V425.5V125.5Z" fill="#26282B"/>
</svg>
